<svg xmlns="http://www.w3.org/2000/svg" viewBox="0 0 246.43 226.5"><defs><style>.cls-1{isolation:isolate;}.cls-2{opacity:0.32;}.cls-3{fill:#666;}.cls-4{opacity:0.3;mix-blend-mode:multiply;}.cls-5,.cls-6{fill:none;stroke-miterlimit:10;stroke-width:2px;}.cls-5{stroke:#d6d6d6;}.cls-6{stroke:#000;}</style></defs><g class="cls-1"><g id="Layer_2" data-name="Layer 2"><g id="Layer_1-2" data-name="Layer 1"><path class="cls-2" d="M129.3,32.46l-.06.06-12.31-12.3c-26.81-26.81-70.5-27-97.09-.38s-26.43,70.28.38,97.09l12.3,12.31L129.24,226l.06-.07Z"/><path class="cls-3" d="M129.2,35.85l-.06.06L117.71,24.48C92.82-.41,52.25-.57,27.55,24.12S3,89.39,27.91,114.28l11.43,11.43,89.8,89.8.06-.06Z"/><g class="cls-4"><circle class="cls-5" cx="132.43" cy="218.5" r="7"/></g><circle class="cls-6" cx="129.43" cy="215.5" r="7"/><g class="cls-4"><circle class="cls-5" cx="238.43" cy="111.5" r="7"/></g><circle class="cls-6" cx="235.43" cy="108.5" r="7"/><g class="cls-4"><circle class="cls-5" cx="236.43" cy="28.5" r="7"/></g><circle class="cls-6" cx="233.43" cy="25.5" r="7"/><g class="cls-4"><circle class="cls-5" cx="174.43" cy="11.5" r="7"/></g><circle class="cls-6" cx="171.43" cy="8.5" r="7"/><g class="cls-4"><circle class="cls-5" cx="131.43" cy="38.5" r="7"/></g><circle class="cls-6" cx="128.43" cy="35.5" r="7"/><g class="cls-4"><polyline class="cls-5" points="136.93 34 167.93 11 180.93 8 231.93 24 239.93 34 242.93 106 233.43 117.5 137.43 212.5"/></g><polyline class="cls-6" points="133.93 31 164.93 8 177.93 5 228.93 21 236.93 31 239.93 103 230.43 114.5 134.43 209.5"/></g></g></g></svg>